<?xml version="1.0" standalone="no"?>
<!DOCTYPE svg PUBLIC "-//W3C//DTD SVG 20010904//EN"
 "http://www.w3.org/TR/2001/REC-SVG-20010904/DTD/svg10.dtd">
<svg version="1.0" xmlns="http://www.w3.org/2000/svg"
 width="1000.000000pt" height="289.000000pt" viewBox="0 0 1000.000000 289.000000"
 preserveAspectRatio="xMidYMid meet">

<g transform="translate(0.000000,289.000000) scale(0.100000,-0.100000)"
fill="#000000" stroke="none">
<path d="M5368 2480 c-27 -17 -50 -30 -53 -30 -3 0 -24 -13 -47 -30 -22 -16
-47 -30 -55 -30 -7 0 -13 -3 -13 -8 0 -4 -17 -16 -37 -27 -21 -11 -42 -24 -48
-28 -5 -4 -66 -42 -135 -85 -69 -42 -129 -80 -135 -85 -5 -4 -29 -18 -52 -30
-83 -43 -213 -129 -233 -154 -22 -28 -25 -54 -10 -84 12 -22 63 -26 85 -6 26
23 40 33 55 40 27 14 58 33 74 46 25 21 46 6 46 -33 0 -42 -31 -69 -149 -131
l-76 -40 -3 -45 c-2 -41 0 -46 25 -57 15 -7 29 -9 32 -4 3 4 16 11 29 15 12 4
22 12 22 17 0 5 7 9 15 9 8 0 15 3 15 8 0 14 70 46 79 36 5 -5 12 -74 15 -154
3 -80 8 -178 12 -218 3 -40 3 -107 -1 -149 -7 -78 -13 -89 -77 -139 -72 -57
-83 -41 -82 111 1 69 6 131 12 138 5 6 12 27 15 45 4 18 18 57 32 87 16 33 25
67 23 87 -3 28 -7 34 -31 36 -22 3 -36 -5 -60 -30 -32 -33 -61 -73 -84 -115
-6 -12 -18 -35 -27 -50 -8 -15 -29 -71 -47 -123 -30 -89 -32 -104 -31 -228 0
-131 0 -133 -24 -144 -13 -6 -24 -15 -24 -20 0 -4 -8 -8 -19 -8 -10 0 -24 -7
-31 -15 -11 -13 -121 -15 -882 -15 -580 0 -876 3 -889 10 -22 12 -25 38 -6 64
13 17 15 17 52 -3 38 -20 53 -21 407 -21 417 0 398 -4 398 80 0 27 4 51 9 54
4 3 11 27 13 53 3 27 15 68 27 93 40 81 50 120 39 145 -22 48 -67 34 -100 -30
-8 -16 -26 -52 -39 -80 -59 -121 -142 -165 -310 -165 -115 0 -127 12 -56 57
23 15 44 30 47 34 3 3 28 16 55 29 28 13 55 31 62 39 19 24 16 76 -5 94 -22
20 -36 21 -61 5 -10 -6 -26 -8 -35 -5 -14 6 -16 28 -16 178 0 190 3 198 66
199 57 0 69 -25 72 -168 3 -113 6 -128 24 -144 28 -24 43 -23 68 4 19 21 20
34 20 303 l0 281 -30 18 c-28 16 -33 16 -55 2 -17 -11 -25 -28 -30 -63 -13
-99 -9 -94 -73 -91 l-57 3 -3 129 c-1 71 1 133 6 138 5 5 46 9 93 9 93 1 80 9
167 -100 30 -37 37 -41 80 -41 26 0 56 -7 66 -15 11 -8 30 -15 42 -15 45 0 46
-7 50 -444 l5 -413 -41 -49 c-22 -27 -40 -52 -40 -56 0 -18 24 -58 39 -64 22
-9 732 -18 776 -10 34 7 35 8 35 54 1 71 26 177 58 244 25 52 36 109 27 137
-10 31 -58 28 -75 -4 -7 -14 -17 -25 -22 -25 -4 0 -8 -8 -8 -18 0 -11 -12 -32
-26 -48 -14 -16 -31 -41 -39 -55 -20 -37 -81 -89 -133 -111 -29 -13 -75 -21
-135 -24 -151 -8 -152 11 -8 98 47 29 91 57 98 64 22 22 26 63 8 90 -15 23
-21 25 -56 19 -28 -5 -40 -3 -43 7 -2 7 -7 81 -10 165 -7 170 -3 183 60 183
63 0 74 -23 74 -153 0 -97 3 -117 19 -135 23 -27 45 -28 71 -2 19 19 20 33 19
273 -1 138 -4 263 -8 277 -4 14 -19 32 -34 40 -27 14 -29 14 -53 -13 -17 -20
-24 -40 -24 -70 0 -57 -9 -66 -63 -68 -72 -3 -77 5 -77 140 0 78 4 121 12 129
8 8 45 12 99 12 l88 0 35 -44 c20 -23 36 -47 36 -52 0 -19 41 -44 74 -44 27 0
36 5 45 28 14 34 8 66 -29 147 -15 33 -31 74 -34 91 -8 38 -40 74 -65 74 -9 0
-33 -13 -51 -30 l-34 -30 -332 0 c-359 0 -348 2 -360 -56 -7 -40 15 -66 67
-78 34 -9 45 -16 47 -34 5 -31 -19 -51 -67 -53 -22 -2 -42 -1 -44 2 -13 16
-48 104 -63 159 -23 88 -38 110 -74 110 -17 0 -30 -3 -30 -7 0 -5 -14 -16 -31
-25 -27 -16 -65 -18 -364 -18 l-334 0 -20 -26 c-12 -15 -21 -34 -21 -43 1 -28
38 -62 72 -67 52 -8 58 -12 58 -39 0 -22 -4 -25 -32 -25 -42 -1 -68 -21 -68
-51 1 -36 24 -60 59 -61 17 -1 35 -6 40 -12 5 -6 11 -201 13 -433 3 -418 3
-422 -18 -441 -12 -11 -25 -17 -30 -14 -5 4 -10 58 -11 121 -2 62 -7 119 -12
125 -5 6 -12 33 -17 61 -4 27 -18 69 -30 94 -13 24 -24 48 -24 53 0 15 -90
158 -118 186 -33 33 -128 102 -141 102 -5 0 -36 -17 -68 -38 -32 -21 -78 -49
-103 -63 -25 -13 -54 -32 -64 -41 -11 -10 -29 -21 -39 -24 -11 -4 -30 -15 -41
-25 -41 -38 -46 -27 -47 99 -2 289 -6 413 -13 488 -7 69 -6 84 9 107 13 21 25
27 54 27 60 0 125 -56 171 -147 26 -52 41 -183 22 -206 -5 -6 -12 -23 -15 -37
-8 -33 -72 -102 -122 -131 -22 -13 -53 -36 -69 -51 -24 -25 -26 -31 -15 -46
33 -41 54 -37 152 24 39 25 81 51 92 57 11 7 22 14 25 17 3 3 22 14 43 24 33
17 62 42 112 96 37 41 55 110 55 216 0 66 -4 104 -11 104 -5 0 -8 4 -5 8 7 11
-26 81 -60 129 -59 81 -121 121 -216 142 -60 13 -84 7 -149 -36 -15 -10 -66
-43 -114 -73 -48 -30 -104 -66 -126 -80 -21 -14 -78 -49 -126 -79 -49 -30 -92
-60 -96 -68 -4 -7 -14 -13 -22 -13 -8 0 -43 -19 -78 -42 -34 -24 -102 -68
-150 -98 -93 -59 -118 -92 -98 -129 23 -42 78 -35 129 16 7 7 19 13 27 13 7 0
15 3 17 8 6 14 88 62 110 65 19 2 24 -3 26 -32 3 -28 -2 -39 -30 -63 -18 -16
-43 -31 -55 -34 -13 -4 -23 -9 -23 -13 0 -4 -21 -18 -47 -30 -112 -53 -173
-100 -173 -134 0 -31 40 -60 74 -53 17 4 32 10 36 14 3 4 22 16 43 26 20 11
37 23 37 27 0 12 99 69 120 69 19 0 20 -8 23 -207 4 -340 3 -350 -17 -372 -9
-10 -28 -22 -42 -25 -13 -4 -24 -11 -24 -16 0 -6 -6 -10 -14 -10 -20 0 -25 52
-15 150 9 89 28 150 70 232 19 38 5 58 -41 58 -24 0 -90 -75 -145 -168 -25
-41 -45 -77 -45 -79 0 -3 -6 -19 -14 -36 -21 -47 -37 -123 -30 -141 3 -9 1
-16 -5 -16 -8 0 -9 -21 -6 -67 4 -38 2 -73 -2 -79 -16 -21 -103 -75 -131 -80
-16 -3 -57 -29 -91 -56 -49 -40 -61 -56 -61 -79 0 -35 45 -63 85 -53 34 8 34
-17 0 -42 -18 -13 -25 -28 -25 -51 0 -53 18 -57 241 -49 156 5 200 4 210 -7
35 -33 143 -110 186 -132 57 -28 130 -49 233 -66 76 -12 175 -3 310 31 53 13
163 67 194 95 12 11 39 33 60 49 l37 28 1023 2 c959 1 1023 2 1040 18 10 10
20 18 24 18 4 0 20 11 36 25 54 46 74 44 124 -11 90 -100 146 -154 166 -160
12 -4 23 -10 26 -13 10 -12 120 -63 157 -73 99 -25 145 -30 238 -25 55 3 116
11 135 18 19 7 48 17 64 23 62 23 128 63 194 119 44 36 75 55 85 51 8 -3 27
-23 41 -44 13 -21 39 -44 55 -51 17 -8 31 -17 31 -21 0 -5 18 -8 39 -8 45 0
51 9 51 83 l0 52 904 -3 c804 -3 905 -1 919 13 9 8 20 15 25 15 5 0 16 7 23
16 8 9 31 27 51 41 45 28 55 23 128 -54 145 -156 313 -207 564 -172 68 9 166
42 237 81 87 46 201 167 250 263 37 73 69 169 69 204 0 17 5 33 10 36 12 8 13
172 1 179 -4 3 -11 30 -14 59 -6 57 -24 97 -44 97 -6 0 -68 -37 -137 -82 -246
-162 -335 -218 -345 -218 -5 0 -22 -11 -36 -25 -24 -25 -24 -28 -10 -55 22
-42 73 -51 109 -18 6 5 29 22 52 36 22 15 62 42 89 60 87 57 121 36 100 -61
-11 -54 -54 -147 -79 -173 -8 -7 -23 -24 -33 -37 -24 -30 -98 -87 -112 -87 -7
0 -24 -8 -38 -18 -23 -14 -50 -17 -163 -17 -135 0 -135 0 -204 35 -141 72
-159 125 -58 176 20 10 60 35 87 55 28 20 69 47 92 60 59 34 157 101 161 111
2 4 7 8 12 8 5 0 44 24 87 53 44 30 86 57 94 60 8 4 33 20 56 35 24 15 90 56
148 92 84 52 105 69 105 88 0 77 -201 267 -390 370 -30 16 -71 39 -90 51 -19
11 -42 24 -50 28 -8 3 -17 9 -20 12 -3 3 -27 17 -54 31 -52 26 -166 128 -166
149 0 6 -7 22 -16 36 -21 33 -24 172 -4 186 22 14 62 1 90 -30 41 -46 123
-107 159 -119 54 -19 173 -15 224 7 78 34 126 122 87 161 -17 17 -28 19 -94
14 -86 -8 -113 4 -161 68 -105 141 -132 147 -259 63 -45 -30 -87 -55 -93 -55
-6 0 -13 -4 -15 -8 -3 -9 -96 -72 -104 -72 -9 0 -149 -94 -152 -102 -2 -5 -10
-8 -18 -8 -8 0 -14 -4 -14 -10 0 -5 -6 -10 -13 -10 -8 0 -24 -9 -37 -20 -13
-11 -29 -20 -36 -20 -23 0 -94 -75 -94 -99 0 -29 38 -64 59 -55 64 27 70 28
85 15 21 -18 20 -54 -1 -73 -10 -9 -36 -25 -58 -36 -61 -31 -85 -56 -85 -89 0
-32 26 -63 53 -63 19 0 100 48 105 61 2 5 12 9 23 9 13 0 34 -23 64 -71 25
-39 58 -83 74 -97 49 -47 94 -82 108 -82 7 0 13 -4 13 -8 0 -5 35 -26 78 -47
117 -58 191 -114 192 -146 0 -21 -10 -31 -52 -54 -29 -16 -66 -38 -83 -51 -16
-12 -40 -25 -52 -29 -13 -3 -23 -11 -23 -16 0 -5 -7 -9 -15 -9 -8 0 -15 -3
-15 -8 0 -4 -17 -16 -37 -27 -20 -11 -52 -35 -72 -52 -50 -45 -68 -49 -92 -21
-17 20 -19 33 -14 113 6 113 20 220 34 265 22 71 11 110 -30 110 -11 0 -69
-54 -69 -64 0 -4 -11 -22 -24 -39 -36 -49 -84 -183 -97 -271 -6 -49 -8 -118
-4 -177 8 -105 3 -119 -43 -133 -12 -4 -22 -12 -22 -17 0 -5 -5 -9 -10 -9 -6
0 -28 -11 -50 -25 l-40 -25 -853 0 -854 0 -13 25 c-7 14 -11 28 -7 31 3 3 194
5 425 5 l420 -2 5 33 c15 94 38 179 61 229 57 125 58 199 2 199 -29 0 -34 -6
-84 -102 -74 -142 -151 -191 -319 -204 -81 -6 -123 -1 -123 16 0 8 125 93 185
126 31 17 45 52 33 80 -10 20 -18 24 -59 24 -46 0 -48 1 -54 33 -3 17 -5 99
-3 182 l3 150 30 5 c31 6 91 -3 103 -15 4 -4 6 -56 4 -117 -2 -89 1 -115 15
-138 22 -38 40 -44 69 -25 l24 15 0 284 c0 261 -1 284 -18 299 -43 39 -83 4
-90 -78 -4 -53 -6 -55 -41 -65 -42 -12 -72 -13 -87 -2 -15 10 -27 223 -14 256
9 25 12 26 95 26 l86 0 69 -70 c77 -78 111 -90 131 -46 9 20 7 37 -14 93 -14
37 -36 101 -48 141 -21 66 -25 72 -50 72 -15 0 -47 -11 -70 -25 l-44 -25 -322
0 -321 0 -31 -26 -31 -26 -9 24 c-6 16 -32 35 -77 57 -83 40 -124 77 -172 156
-20 33 -45 68 -57 77 -30 26 -74 21 -127 -12z m0 -230 c28 -22 54 -45 59 -52
14 -23 86 -75 127 -92 77 -32 205 -9 238 43 12 19 13 19 25 -10 12 -30 46 -49
88 -49 28 0 49 -32 40 -60 -4 -14 -15 -20 -36 -20 -46 0 -69 -17 -69 -49 0
-33 30 -57 76 -63 21 -2 30 -9 32 -25 2 -13 8 -23 13 -23 5 0 9 -157 9 -393
l0 -393 -40 -39 c-28 -27 -43 -36 -50 -29 -7 7 -13 130 -17 330 l-6 319 32 39
c36 45 37 53 14 78 -19 21 -75 24 -92 5 -6 -8 -29 -22 -51 -32 -22 -10 -40
-22 -40 -27 0 -4 -7 -8 -15 -8 -8 0 -15 -4 -15 -10 0 -5 -11 -12 -25 -16 -14
-3 -23 -10 -20 -14 3 -5 -8 -11 -25 -15 -16 -4 -30 -10 -30 -14 0 -4 -19 -17
-42 -30 -59 -30 -232 -142 -252 -163 -29 -30 -25 -80 8 -102 22 -14 28 -14 58
-1 37 17 70 37 78 46 11 14 124 69 141 69 10 0 27 -12 38 -26 20 -25 21 -39
21 -283 0 -240 -1 -258 -20 -289 l-21 -34 -93 7 c-89 7 -94 6 -115 -16 -24
-26 -25 -30 -10 -62 8 -18 23 -26 57 -33 25 -5 47 -14 49 -19 2 -6 -15 -22
-37 -35 -22 -14 -40 -28 -40 -32 0 -5 -6 -8 -14 -8 -7 0 -27 -7 -42 -15 -16
-8 -39 -15 -51 -15 -12 0 -25 -4 -28 -10 -9 -15 -143 -12 -200 5 -48 14 -94
34 -105 45 -3 3 -22 13 -42 24 -42 21 -128 103 -128 122 0 19 31 45 87 74 26
14 84 48 128 76 44 28 96 59 115 70 19 10 41 25 48 31 7 7 19 13 26 13 32 0
34 43 30 560 -2 283 -5 545 -7 581 -2 54 2 71 17 88 29 32 67 26 124 -19z
m2712 -132 c0 -25 -4 -29 -22 -26 -26 3 -35 32 -18 53 18 21 40 6 40 -27z
m-6340 -12 c0 -30 -24 -61 -41 -54 -21 8 -22 63 -3 83 20 20 44 4 44 -29z
m3342 27 c7 -35 -4 -72 -23 -78 -27 -9 -39 2 -39 33 0 31 9 47 30 55 25 9 28
8 32 -10z m-2163 -62 c13 -23 -10 -47 -34 -37 -18 7 -20 42 -2 49 21 9 26 7
36 -12z m911 -17 c0 -19 -28 -30 -42 -16 -8 8 -8 15 1 26 14 17 41 10 41 -10z
m2365 15 c9 -14 -3 -59 -15 -59 -5 0 -12 11 -16 24 -6 26 1 46 16 46 5 0 12
-5 15 -11z m1959 -125 c9 -8 16 -20 16 -25 0 -10 35 -53 65 -80 50 -45 69 -59
76 -59 4 0 47 -25 96 -55 50 -30 95 -55 101 -55 7 0 12 -4 12 -10 0 -5 6 -10
13 -10 32 0 177 -126 232 -201 32 -45 33 -48 16 -65 -32 -34 -66 -58 -114 -84
-26 -13 -47 -27 -47 -30 0 -4 -27 -21 -60 -40 -33 -19 -60 -37 -60 -41 0 -4
-9 -11 -21 -14 -19 -6 -80 -45 -320 -199 -47 -31 -95 -56 -106 -56 -22 0 -36
22 -27 43 4 10 137 101 222 152 46 28 107 71 110 78 2 4 10 7 18 7 8 0 14 4
14 9 0 5 10 13 21 16 18 6 128 75 164 102 6 4 34 24 63 43 28 19 52 41 52 48
0 34 -199 202 -239 202 -6 0 -11 4 -11 8 0 4 -25 19 -55 32 -30 13 -55 27 -55
30 0 3 -36 27 -80 55 -63 40 -87 63 -120 112 -42 64 -49 88 -27 96 22 10 35 7
51 -9z m-6418 -41 c4 -10 10 -179 12 -375 l4 -357 -48 -28 c-26 -15 -59 -37
-73 -49 -14 -11 -65 -44 -113 -73 -80 -49 -118 -59 -118 -32 0 12 10 19 168
122 67 43 122 85 123 92 0 6 0 166 -1 354 -1 188 1 347 5 353 10 16 32 12 41
-7z m1188 -5 c3 -13 6 -179 6 -369 0 -364 -2 -379 -44 -363 -14 6 -16 43 -16
373 0 202 3 371 7 374 14 15 41 6 47 -15z m2164 -386 l2 -403 -60 -37 c-33
-20 -107 -67 -165 -105 -104 -67 -138 -79 -148 -53 -7 18 29 66 49 66 8 0 14
3 14 8 0 4 24 20 53 36 61 33 155 95 177 115 12 12 14 72 15 388 0 395 0 398
45 390 13 -2 15 -56 18 -405z m1105 394 c3 -8 11 -172 18 -365 9 -278 9 -354
-1 -366 -33 -40 -37 -19 -43 242 -9 319 -9 467 -1 487 8 20 20 21 27 2z
m-2363 -381 c0 -301 -3 -375 -13 -375 -35 0 -37 19 -37 371 0 191 3 354 6 363
3 9 15 16 25 16 18 0 19 -14 19 -375z m-1596 34 c40 -35 115 -143 141 -204 10
-22 23 -51 29 -64 16 -36 15 -363 -1 -369 -7 -2 -13 -12 -13 -22 0 -11 -10
-28 -22 -40 -22 -20 -31 -20 -447 -18 -366 3 -426 5 -426 18 0 8 47 42 105 76
58 34 151 92 208 129 l102 66 0 180 c0 167 1 180 18 175 62 -18 67 -17 147 36
44 29 82 56 83 60 8 17 43 6 76 -23z m2286 -764 c16 -20 3 -36 -67 -81 l-53
-34 -921 0 c-828 0 -922 2 -936 16 -14 13 -14 17 -2 25 8 5 404 9 917 9 790 0
907 2 932 15 17 9 30 19 30 24 0 5 11 12 25 15 14 4 25 11 25 16 0 15 36 12
50 -5z m3296 -7 c7 -24 -15 -46 -90 -89 l-41 -24 -893 -3 c-826 -2 -893 -1
-899 14 -17 44 -18 44 901 44 l871 1 55 39 c63 45 86 49 96 18z m-5577 -67
c12 -8 12 -12 2 -25 -12 -14 -54 -16 -330 -16 -320 0 -347 3 -334 36 4 12 63
14 327 14 176 0 327 -4 335 -9z m-255 -147 c13 -5 14 -9 5 -20 -14 -18 -102
-19 -132 -2 -21 12 -19 13 23 19 68 9 87 10 104 3z"/>
<path d="M7490 2272 c0 -23 -53 -27 -373 -32 l-339 -5 -19 -24 c-40 -49 -11
-104 61 -116 74 -12 61 -62 -23 -89 -22 -7 -31 -29 -23 -61 5 -19 13 -25 35
-25 16 0 38 -8 50 -17 22 -18 22 -24 28 -428 l5 -410 -41 -43 c-47 -50 -53
-88 -20 -118 20 -18 43 -19 408 -21 317 -2 389 0 404 11 13 10 20 33 24 73 2
32 11 72 19 90 8 17 14 40 14 50 0 11 11 43 25 71 29 60 33 132 9 156 -8 9
-19 16 -23 16 -24 0 -65 -51 -101 -126 -69 -145 -114 -174 -282 -182 -134 -6
-139 4 -35 78 78 57 117 96 117 121 0 25 -36 52 -64 47 -14 -3 -30 -2 -36 2
-12 8 -29 168 -29 288 -1 62 -1 63 34 79 33 16 37 16 70 0 39 -19 39 -15 35
-154 -2 -102 -2 -102 28 -133 25 -24 35 -28 54 -21 l23 8 3 291 c2 281 2 292
-18 312 -25 25 -31 25 -64 -1 -22 -17 -26 -28 -26 -69 0 -31 -6 -54 -16 -64
-16 -17 -89 -22 -111 -8 -13 8 -21 241 -9 261 5 7 42 11 100 11 l93 0 34 -37
c95 -103 98 -104 126 -101 25 3 28 7 31 46 3 34 -5 60 -33 118 -20 41 -42 93
-49 117 -11 40 -14 42 -54 45 -23 2 -42 -1 -42 -6z m-374 -208 c4 -17 2 -29
-7 -34 -18 -12 -29 -3 -29 24 0 42 26 50 36 10z m2 -171 c6 -17 12 -167 14
-378 3 -349 3 -350 -18 -353 -20 -3 -21 1 -27 239 -9 309 -9 504 0 512 12 13
21 7 31 -20z"/>
</g>
</svg>
